<?xml version="1.0" standalone="no"?>
<!DOCTYPE svg PUBLIC "-//W3C//DTD SVG 20010904//EN"
 "http://www.w3.org/TR/2001/REC-SVG-20010904/DTD/svg10.dtd">
<svg version="1.0" xmlns="http://www.w3.org/2000/svg"
 width="260.000000pt" height="260.000000pt" viewBox="0 0 260.000000 260.000000"
 preserveAspectRatio="xMidYMid meet">
<metadata>
Created by potrace 1.14, written by Peter Selinger 2001-2017
</metadata>
<g transform="translate(0.000000,260.000000) scale(0.100000,-0.100000)"
fill="#000000" stroke="none">
<path d="M1105 2534 c-114 -20 -195 -43 -292 -85 -92 -39 -225 -114 -231 -130
-2 -5 -9 -9 -16 -9 -6 0 -19 -8 -28 -17 -8 -10 -25 -25 -36 -33 -83 -62 -242
-245 -273 -315 -5 -11 -21 -40 -35 -65 -14 -25 -27 -53 -29 -64 -3 -10 -8 -23
-13 -30 -16 -19 -64 -168 -78 -241 -25 -128 -29 -344 -9 -440 4 -16 8 -39 10
-50 1 -11 8 -40 15 -65 7 -25 13 -52 15 -60 10 -51 119 -282 136 -288 5 -2 9
-8 9 -14 0 -10 61 -98 90 -129 74 -80 122 -127 160 -158 25 -20 53 -43 63 -52
9 -9 30 -22 45 -30 15 -8 29 -17 32 -21 14 -19 234 -119 290 -132 8 -2 35 -9
59 -16 136 -36 358 -50 483 -28 150 25 313 78 415 135 104 58 85 44 183 121
79 62 140 120 140 134 0 4 7 8 15 8 8 0 15 4 15 8 0 5 8 18 17 30 40 46 50 59
80 107 18 28 36 55 40 60 33 43 122 262 138 340 29 145 33 193 31 320 -4 230
-63 438 -173 613 -18 29 -33 57 -33 62 0 6 -4 10 -8 10 -5 0 -22 21 -39 48
-25 37 -128 147 -196 207 -32 28 -116 85 -126 85 -6 0 -11 4 -11 8 0 8 -111
67 -191 101 -51 21 -186 61 -234 68 -16 3 -49 8 -73 13 -64 11 -278 8 -357 -6z"/>
</g>
</svg>
